<svg xmlns="http://www.w3.org/2000/svg" version="1.1" xmlns:xlink="http://www.w3.org/1999/xlink" width="512" height="512" x="0" y="0" viewBox="0 0 453.54 453.54" style="enable-background:new 0 0 512 512" xml:space="preserve" class=""><g><path d="M448.764 49.322c-9.497-6.85-18.496-14.239-27.733-21.424-9.653-7.511-23.355 5.984-13.584 13.586 3.943 3.068 7.852 6.171 11.766 9.262-72.129 7.341-142.799 26.615-205.707 63.51C147.402 153.024 94.471 210.113 54.633 275.1 27.675 319.074 6.392 367.129.082 418.689c-1.503 12.28 17.729 12.135 19.213 0 5.99-48.94 27.717-94.398 53.215-135.992 20.389-33.259 44.455-64.112 72.236-91.517 53.323-52.601 120.137-88.069 192.381-106.827 25.422-6.601 51.33-11.058 77.421-13.904a535.474 535.474 0 0 1-7.102 5.872c-9.627 7.809 4.054 21.317 13.584 13.586 10.145-8.228 19.909-16.833 29.679-25.496 5-4.436 2.767-11.691-1.945-15.089z" fill="#ff623a" opacity="1" data-original="#000000"></path></g></svg>