<?xml version="1.0" encoding="UTF-8"?>
<svg xmlns="http://www.w3.org/2000/svg" version="1.1" viewBox="0 0 469.3 469.3">
  <defs>
    <style>
      .cls-1 {
        fill: #fff;
      }
    </style>
  </defs>
  <!-- Generator: Adobe Illustrator 28.7.1, SVG Export Plug-In . SVG Version: 1.2.0 Build 142)  -->
  <g>
    <g id="Capa_1">
      <g>
        <path class="cls-1" d="M460,137.2L332,9.1c-12.1-12.1-33.2-12.1-45.3,0l-42.7,42.7c-6.1,6-9.4,14.1-9.4,22.7s3.3,16.6,9.4,22.7l128,128.2c6,6.1,14.1,9.4,22.6,9.4s16.6-3.3,22.6-9.4l42.7-42.7c6.1-6,9.4-14.1,9.4-22.7,0-8.6-3.3-16.6-9.4-22.7Z"/>
        <path class="cls-1" d="M235.1,118.5c-3.5-3.5-8.9-4.1-13.1-1.6-31.1,19.1-79.9,41.9-135.5,41.9s-8.9,3.2-10.3,7.7L.4,432c-1.3,4.7.7,9.8,5,12.2,4.3,2.4,9.7,1.6,13-1.9l126.9-134.3c4.3-4.5,6.3-10.9,5.5-17.5-1.5-12.9,4.4-24.6,15.8-31.4,10-5.9,23.2-5.6,33,.7,8.5,5.5,13.7,14,14.8,23.8,1,9.7-2.3,19.1-9.2,26-6.9,6.9-16.4,10.1-26.2,9-6.7-.8-12.9,1.2-17.4,5.5L27.1,450.9c-3.6,3.4-4.4,8.8-1.9,13,1.9,3.4,5.5,5.4,9.3,5.4s2-.1,2.9-.4l265.4-75.8c4.6-1.3,7.7-5.5,7.7-10.3,0-55.6,22.8-104.4,41.9-135.5,2.6-4.2,1.9-9.6-1.6-13.1l-115.7-115.7Z"/>
      </g>
    </g>
  </g>
</svg>