<?xml version="1.0" encoding="UTF-8"?>
<svg xmlns="http://www.w3.org/2000/svg" xmlns:xlink="http://www.w3.org/1999/xlink" version="1.1" viewBox="0 0 512 512">
  <defs>
    <style>
      .cls-1 {
        fill: #fff;
      }

      .cls-2 {
        fill: url(#linear-gradient);
        fill-rule: evenodd;
      }
    </style>
    <linearGradient id="linear-gradient" x1="434.2" y1="436.2" x2="77.8" y2="79.8" gradientTransform="translate(0 514) scale(1 -1)" gradientUnits="userSpaceOnUse">
      <stop offset="0" stop-color="#ef3e3d"/>
      <stop offset="1" stop-color="#ffc828"/>
    </linearGradient>
  </defs>
  <!-- Generator: Adobe Illustrator 28.7.1, SVG Export Plug-In . SVG Version: 1.2.0 Build 142)  -->
  <g>
    <g id="Layer_1">
      <circle class="cls-1" cx="252.7" cy="256" r="203.5"/>
      <path class="cls-2" d="M256,4c69.6,0,132.6,28.2,178.2,73.8s73.8,108.6,73.8,178.2-28.2,132.6-73.8,178.2-108.6,73.8-178.2,73.8-132.6-28.2-178.2-73.8S4,325.6,4,256,32.2,123.4,77.8,77.8,186.4,4,256,4ZM372.4,266.4c1.8-1,3.4-2.5,4.5-4.5,3.3-5.7,1.3-13-4.4-16.3l-86.6-50-85.6-49.4c-2-1.4-4.4-2.2-6.9-2.2-6.6,0-12,5.4-12,12v200h0c0,2,.5,4.1,1.6,6,3.3,5.7,10.6,7.7,16.3,4.4l86.6-50,86.5-49.9Z"/>
    </g>
  </g>
</svg>