<svg width="18" height="18" viewBox="0 0 18 18" fill="none" xmlns="http://www.w3.org/2000/svg">
<g id="check (9) 1" clip-path="url(#clip0_217_424)">
<path id="Vector" d="M15.4464 2.86974C13.7995 1.22294 11.61 0.315918 9.28103 0.315918C6.95207 0.315918 4.76249 1.22294 3.11564 2.86974C1.46884 4.51653 0.561874 6.70612 0.561874 9.03508C0.561874 11.364 1.46884 13.5536 3.11564 15.2004C4.76249 16.8472 6.95202 17.7541 9.28098 17.7541C11.6099 17.7541 13.7995 16.8472 15.4463 15.2004C17.0931 13.5536 18.0001 11.364 18.0001 9.03508C18.0001 6.70612 17.0932 4.51653 15.4464 2.86974ZM14.1917 7.15297L9.25293 12.6622C9.1149 12.8161 8.91646 12.9044 8.70846 12.9044H8.7084C8.52794 12.9044 8.3549 12.8384 8.22114 12.7185L4.53887 9.41747C4.23887 9.14855 4.21363 8.68568 4.48255 8.38579L5.28381 7.49197C5.42184 7.33804 5.62028 7.24969 5.82828 7.24969C6.00874 7.24969 6.18179 7.31573 6.31549 7.4356L8.267 9.18519C8.33883 9.24954 8.4319 9.28495 8.52912 9.28495C8.64147 9.28495 8.74842 9.23746 8.82255 9.15479L12.2098 5.37635C12.3478 5.22242 12.5462 5.13407 12.7542 5.13407C12.9347 5.13407 13.1077 5.2001 13.2414 5.32004L14.1353 6.12135C14.4354 6.39021 14.4607 6.85303 14.1917 7.15297Z" fill="white"/>
</g>
<defs>
<clipPath id="clip0_217_424">
<rect width="17.4383" height="17.4383" fill="white" transform="translate(0.561874 0.315918)"/>
</clipPath>
</defs>
</svg>
