<svg width="18" height="19" viewBox="0 0 18 19" fill="none" xmlns="http://www.w3.org/2000/svg">
<g id="Group">
<path id="Vector" d="M1.14806 5.24931C1.91376 3.93752 2.95239 2.89889 4.26422 2.13323C5.57628 1.3676 7.00858 0.984863 8.56221 0.984863C10.1157 0.984863 11.5484 1.3676 12.8602 2.13323C14.1722 2.89877 15.2108 3.93741 15.9765 5.24931C16.7422 6.5613 17.125 7.99403 17.125 9.54738C17.125 11.1008 16.7421 12.5333 15.9766 13.8454C15.2109 15.1572 14.1723 16.1958 12.8604 16.9615C11.5484 17.7271 10.1158 18.1099 8.56237 18.1099C7.00894 18.1099 5.57617 17.7271 4.26426 16.9615C2.95243 16.1961 1.91384 15.1572 1.14821 13.8454C0.382704 12.5334 5.72205e-06 11.1007 5.72205e-06 9.54738C-3.24249e-05 7.99387 0.382704 6.5611 1.14806 5.24931ZM4.52641 11.5652C4.38516 11.7063 4.31444 11.8739 4.31444 12.0672C4.31444 12.2676 4.38516 12.4387 4.52641 12.5798L5.52974 13.5834C5.67087 13.7245 5.84191 13.7951 6.04267 13.7951C6.23589 13.7951 6.40334 13.7245 6.54435 13.5834L8.56233 11.5652L10.5804 13.5834C10.7216 13.7245 10.8888 13.7951 11.0821 13.7951C11.2828 13.7951 11.4537 13.7245 11.595 13.5834L12.5985 12.5798C12.7397 12.4387 12.8103 12.2676 12.8103 12.0672C12.8103 11.8739 12.7396 11.7063 12.5985 11.5652L10.5804 9.54735L12.5985 7.52928C12.7397 7.38823 12.8103 7.22086 12.8103 7.0276C12.8103 6.82688 12.7396 6.65596 12.5985 6.51471L11.595 5.51138C11.4537 5.37017 11.2828 5.29957 11.0821 5.29957C10.8888 5.29957 10.7216 5.37021 10.5804 5.51138L8.56233 7.52928L6.54435 5.51138C6.40338 5.37017 6.23593 5.29957 6.04267 5.29957C5.84191 5.29957 5.67087 5.37021 5.52974 5.51138L4.52641 6.51471C4.38516 6.65596 4.31444 6.82688 4.31444 7.0276C4.31444 7.22082 4.38516 7.38823 4.52641 7.52928L6.54435 9.54735L4.52641 11.5652Z" fill="#FF337C"/>
</g>
</svg>
