<svg width="45" height="45" viewBox="0 0 45 45" fill="none" xmlns="http://www.w3.org/2000/svg">
<g id="next 1" clip-path="url(#clip0_173_2354)">
<g id="Group">
<g id="Group_2">
<path id="Vector" d="M22.9336 44.4287C35.0648 44.4287 44.9336 34.5599 44.9336 22.4287C44.9336 10.2975 35.0648 0.428711 22.9336 0.428711C10.8024 0.428711 0.933594 10.2975 0.933594 22.4287C0.933594 34.5599 10.8024 44.4287 22.9336 44.4287ZM16.1374 21.1325L25.3041 11.9659C25.6616 11.6084 26.1309 11.4287 26.6003 11.4287C27.0696 11.4287 27.539 11.6084 27.8965 11.9659C28.6133 12.6827 28.6133 13.8414 27.8965 14.5582L20.0259 22.4287L27.8964 30.2992C28.6132 31.016 28.6132 32.1747 27.8964 32.8915C27.1796 33.6083 26.0209 33.6083 25.3041 32.8915L16.1374 23.7248C15.4206 23.008 15.4206 21.8494 16.1374 21.1325Z" fill="url(#paint0_linear_173_2354)"/>
</g>
</g>
</g>
<defs>
<linearGradient id="paint0_linear_173_2354" x1="44.9336" y1="22.4287" x2="0.933594" y2="22.4287" gradientUnits="userSpaceOnUse">
<stop stop-color="#FF1EA5"/>
<stop offset="1" stop-color="#FF6B74"/>
</linearGradient>
<clipPath id="clip0_173_2354">
<rect width="44" height="44" fill="white" transform="matrix(-1 0 0 -1 44.9336 44.4287)"/>
</clipPath>
</defs>
</svg>
