<svg width="28" height="27" viewBox="0 0 28 27" fill="none" xmlns="http://www.w3.org/2000/svg">
<path id="Star 1" d="M12.5177 1.66092C13.295 0.369279 15.1676 0.369279 15.9449 1.66092L19.0607 6.83817C19.3399 7.30219 19.7954 7.63313 20.323 7.75533L26.2097 9.11869C27.6783 9.45883 28.257 11.2398 27.2688 12.3782L23.3077 16.9413C22.9527 17.3502 22.7787 17.8857 22.8255 18.4253L23.348 24.4451C23.4783 25.947 21.9634 27.0477 20.5753 26.4596L15.0115 24.1025C14.5128 23.8912 13.9498 23.8912 13.4511 24.1025L7.88736 26.4596C6.49929 27.0477 4.98433 25.947 5.11467 24.4451L5.63712 18.4253C5.68394 17.8857 5.50996 17.3502 5.15494 16.9413L1.19389 12.3782C0.205672 11.2398 0.784335 9.45883 2.25296 9.11869L8.13963 7.75533C8.66724 7.63313 9.12274 7.30219 9.40199 6.83817L12.5177 1.66092Z" fill="#FFC700"/>
</svg>
